<svg xmlns="http://www.w3.org/2000/svg" width="24" height="24"><path fill="#5f6368" stroke="null" d="M13 11.34h-2.1V9.45H13v1.9zm0-6.53h-2.1v1.95H13V4.81zm2.5 4.64h-2.11v1.9h2.11v-1.9zm-5-2.3H8.4v1.92h2.11V7.15zm2.5 0h-2.1v1.92H13V7.15zm8.88 3.2c-.45-.32-1.54-.42-2.34-.26-.1-.76-.55-1.44-1.32-2.05l-.44-.28-.3.44c-.57.9-.73 2.37-.12 3.34-.29.16-.83.35-1.54.35H1.85a6.7 6.7 0 0 0 1.41 5.19c1.19 1.4 2.98 2.11 5.29 2.11 5.03 0 8.78-2.3 10.5-6.53.68 0 2.19 0 2.92-1.44.03-.07.23-.42.26-.55l-.35-.32zM5.5 9.45H3.39v1.9h2.12v-1.9zm2.5 0H5.88v1.9H8v-1.9zm2.5 0H8.38v1.9h2.11v-1.9zM8 7.15H5.88v1.92H8V7.15z"/></svg>